<?xml version="1.0" standalone="no"?>
<!DOCTYPE svg PUBLIC "-//W3C//DTD SVG 20010904//EN"
 "http://www.w3.org/TR/2001/REC-SVG-20010904/DTD/svg10.dtd">
<svg version="1.0" xmlns="http://www.w3.org/2000/svg"
 width="512.000000pt" height="512.000000pt" viewBox="0 0 512.000000 512.000000"
 preserveAspectRatio="xMidYMid meet">
<metadata>
Created by potrace 1.11, written by Peter Selinger 2001-2013
</metadata>
<g transform="translate(0.000000,512.000000) scale(0.100000,-0.100000)"
fill="#000000" stroke="none">
<path d="M910 4408 c-391 -35 -734 -310 -859 -689 -49 -148 -50 -168 -50
-1089 l-1 -866 167 -81 c353 -172 706 -306 963 -367 121 -28 195 -44 235 -50
22 -4 67 -11 100 -17 74 -12 232 -23 345 -23 433 0 786 133 1051 395 99 98
111 113 155 179 34 51 43 53 13 3 -164 -272 -360 -457 -624 -588 -150 -74
-268 -115 -445 -151 -28 -6 -165 -24 -230 -30 -73 -6 -351 -6 -420 0 -25 3
-76 8 -115 11 -38 4 -79 9 -90 11 -10 2 -37 6 -60 9 -216 30 -568 120 -836
215 -62 22 -117 40 -121 40 -13 0 24 -75 80 -160 164 -250 441 -418 737 -447
81 -8 2074 -8 2150 0 126 13 224 43 344 102 296 149 506 442 547 765 10 78 12
1794 2 1915 -38 470 -394 840 -878 912 -63 9 -2056 10 -2160 1z m1250 -612
c533 -85 949 -486 1045 -1008 66 -359 -24 -717 -255 -1009 -71 -90 -182 -192
-275 -253 -33 -22 -72 -48 -87 -58 -15 -10 -30 -18 -33 -18 -4 0 -32 -12 -63
-26 -172 -78 -291 -105 -482 -109 -429 -10 -800 176 -1051 525 -84 116 -168
294 -185 390 -3 14 -9 39 -14 55 -28 93 -36 369 -15 490 11 60 52 198 80 266
119 295 397 568 690 679 11 4 32 12 47 18 32 13 140 42 183 49 17 3 50 8 75
12 55 9 278 7 340 -3z"/>
<path d="M1908 3471 c-30 -10 -86 -47 -106 -71 -54 -63 -69 -174 -34 -251 64
-140 256 -177 368 -71 84 79 96 218 27 309 -54 70 -174 110 -255 84z"/>
<path d="M1203 2779 c-51 -9 -79 -23 -116 -58 -72 -66 -94 -172 -56 -260 95
-221 423 -168 442 73 13 148 -123 271 -270 245z"/>
<path d="M2695 2779 c-80 -17 -152 -73 -176 -138 -60 -155 52 -321 216 -321
197 1 300 234 172 386 -46 54 -144 88 -212 73z"/>
<path d="M1901 2015 c-88 -29 -154 -125 -153 -222 2 -204 250 -303 396 -157
40 41 57 80 63 143 15 164 -148 290 -306 236z"/>
<path d="M4884 3610 c-27 -14 -130 -68 -229 -120 -356 -184 -390 -203 -425
-228 -45 -34 -53 -41 -76 -77 -18 -28 -19 -53 -20 -615 0 -445 2 -593 12 -617
23 -58 74 -97 244 -185 122 -64 303 -158 465 -243 73 -38 84 -41 123 -33 55
12 116 69 131 123 8 28 11 317 11 955 0 872 -1 917 -19 956 -23 50 -72 90
-127 102 -36 8 -48 6 -90 -18z"/>
</g>
</svg>
